<svg xmlns="http://www.w3.org/2000/svg" version="1.1" xmlns:xlink="http://www.w3.org/1999/xlink" width="1000" height="1000"><g clip-path="url(#SvgjsClipPath1007)"><rect width="1000" height="1000" fill="#ffffff"></rect><g transform="matrix(3.5,0,0,3.5,150,150)"><svg xmlns="http://www.w3.org/2000/svg" version="1.1" xmlns:xlink="http://www.w3.org/1999/xlink" width="200" height="200"><svg xmlns="http://www.w3.org/2000/svg" version="1.1" xmlns:xlink="http://www.w3.org/1999/xlink" viewBox="0 0 200 200"><rect width="200" height="200" fill="url('#gradient')"></rect><defs><linearGradient id="gradient" gradientTransform="rotate(45 0.5 0.5)"><stop offset="0%" stop-color="#3d2e34"></stop><stop offset="100%" stop-color="#3d2e34"></stop></linearGradient><clipPath id="SvgjsClipPath1007"><rect width="1000" height="1000" x="0" y="0" rx="350" ry="350"></rect></clipPath></defs><g><g fill="#c23520" transform="matrix(37.43655913978495,0,0,37.43655913978495,-10.811196475131538,157.6552684353244)" stroke="#114a81" stroke-width="0"><path d="M2.96-3.19L2.96-3.19Q3.74-3.19 4.26-2.73Q4.78-2.27 4.78-1.54Q4.78-0.82 4.26-0.36Q3.74 0.11 2.96 0.11L2.96 0.11Q2.17 0.11 1.66-0.36Q1.14-0.83 1.14-1.54Q1.14-2.26 1.66-2.72Q2.17-3.19 2.96-3.19Z"></path></g></g></svg></svg></g></g></svg>